<svg width="780" height="600" 
    xmlns="http://www.w3.org/2000/svg">
    <title>dashboard</title>

    <g>
        <title>background</title>
        <rect x="-1" y="-1" width="782" height="602" id="canvas_background" fill="none"/>
    </g>
    <g>
        <title>Layer 1</title>
        <ellipse cx="115.22" cy="858.74" rx="26.93" ry="4.55" fill="#6c63ff" opacity="0.1" id="svg_77"/>
        <path d="m10.16,535.405l0,24.89784c0,13.74769 17.74,24.89218 39.63,24.89218l680.42,0c21.89,0 39.63,-11.14449 39.63,-24.89218l0,-24.89784l-759.68,0z" fill="#c8cad7" id="svg_6" stroke="null"/>
        <path d="m769.84001,54.37501a39.62,39.62 0 0 0 -39.63,-39.57l-680.39,0a39.62,39.62 0 0 0 -39.66,39.57l0,489.57l759.68,0l0,-489.57z" fill="#474157" id="svg_9"/>
        <path d="m750.16001,71.05501l0,420.67a19.5,19.5 0 0 1 -19.51,19.51l-679.22,0a19.5,19.5 0 0 1 -19.51,-19.51l0,-420.67a19.51,19.51 0 0 1 19.51,-19.51l679.17,0a19.51,19.51 0 0 1 19.56,19.51z" fill="#4c4c78" id="svg_10"/>
        <circle cx="390.01001" cy="33.64501" r="9.15" fill="#fff" id="svg_11"/>
        <path d="m182.69001,62.30501l0,449.93l-132.26,0a19.5,19.5 0 0 1 -19.51,-19.51l0,-420.67l0.71,-2.65l1.9,-7.1l149.16,0z" fill="#fff" id="svg_13"/>
        <polygon points="199.66000366210938,69.40502166748047 199.66000366210938,109.90502166748047 30.92000961303711,109.90502166748047 30.92000961303711,72.05501556396484 31.630001068115234,69.40502166748047 199.66000366210938,69.40502166748047 " fill="#4c4c78" id="svg_14"/>
        <path d="m749.16001,72.05501l-718.24,0a19.5,19.5 0 0 1 19.51,-19.5l679.17,0a19.5,19.5 0 0 1 19.56,19.5z" fill="#c8cad7" id="svg_15"/>
        <rect x="56.14001" y="87.23501" width="101.33" height="9.33" fill="#6c63ff" id="svg_19"/>
        <rect x="56.14001" y="133.73501" width="101.33" height="9.33" fill="#6c63ff" opacity="0.5" id="svg_20"/>
        <rect x="56.14001" y="165.90501" width="101.33" height="9.33" fill="#6c63ff" opacity="0.5" id="svg_21"/>
        <rect x="56.14001" y="198.07501" width="101.33" height="9.33" fill="#6c63ff" opacity="0.5" id="svg_22"/>
        <rect x="56.14001" y="230.23501" width="101.33" height="9.33" fill="#6c63ff" opacity="0.5" id="svg_23"/>
        <rect x="56.14001" y="262.40501" width="101.33" height="9.33" fill="#6c63ff" opacity="0.5" id="svg_24"/>
        <rect x="56.14001" y="294.57501" width="101.33" height="9.33" fill="#6c63ff" opacity="0.5" id="svg_25"/>
        <rect x="56.14001" y="326.73501" width="101.33" height="9.33" fill="#6c63ff" opacity="0.5" id="svg_26"/>
        <rect x="265.65001" y="121.54501" width="449.01" height="1.5" fill="#dce0ed" opacity="0.5" id="svg_27"/>
        <rect x="265.65001" y="156.37501" width="449.01" height="1.5" fill="#dce0ed" opacity="0.5" id="svg_28"/>
        <rect x="265.65001" y="191.21501" width="449.01" height="1.5" fill="#dce0ed" opacity="0.5" id="svg_29"/>
        <rect x="265.65001" y="226.04501" width="449.01" height="1.5" fill="#dce0ed" opacity="0.5" id="svg_30"/>
        <rect x="265.65001" y="260.87501" width="449.01" height="1.5" fill="#dce0ed" opacity="0.5" id="svg_31"/>
        <polygon points="714.6702575683594,262.3650207519531 265.1000061035156,262.3650207519531 265.1000061035156,193.86500549316406 306.33001708984375,214.1850128173828 349.0000305175781,219.9650115966797 386.4400329589844,208.67503356933594 431.6100158691406,173.64503479003906 454.3299865722656,160.52500915527344 470.940185546875,157.3250274658203 486.8299560546875,158.17503356933594 512.9700622558594,171.0850067138672 548.4901428222656,193.7150115966797 576.3700866699219,197.3050079345703 598.4801330566406,189.6850128173828 645.3299865722656,151.3050079345703 669.2500305175781,142.77500915527344 694.2799377441406,146.64503479003906 714.6702575683594,158.41502380371094 714.6702575683594,262.3650207519531 " fill="#6c63ff" opacity="0.5" id="svg_32"/>
        <path d="m343.46001,219.98501c-40.48,0 -77.9,-24.76 -78.36,-25.08l1.11,-1.66c0.58,0.39 58.16,38.49 107.09,19.4c17.86,-6.95 30.54,-17.78 42.86,-28.24c12.83,-10.93 24.95,-21.26 41.46,-25.74c19,-5.13 39.65,-0.48 55.38,12.44c13.44,11.05 40.22,28.8 68.51,23.49c14.42,-2.7 26.58,-13.24 39.45,-24.39c24.64,-21.4 50.2,-43.49 94.29,-11.77l-1.17,1.62c-42.85,-30.79 -67.76,-9.21 -91.84,11.66c-13.08,11.34 -25.44,22 -40.39,24.85c-29.1,5.45 -56.44,-12.64 -70.15,-23.91c-15.23,-12.52 -35.26,-17 -53.58,-12.05c-16.09,4.36 -28,14.54 -40.69,25.32c-12.41,10.57 -25.25,21.51 -43.4,28.59a83.88,83.88 0 0 1 -30.57,5.47z" fill="#6c63ff" id="svg_33"/>
        <circle cx="481.71001" cy="157.12501" r="11.13" fill="#6c63ff" id="svg_34"/>
        <path d="m177.75001,505.11501s11.9,-3.94 12.77,5.2c0,0 -2.25,-6.27 -12.77,-5.2z" opacity="0.1" id="svg_56"/>
        <rect opacity="0.5" x="310.49482" y="340.40501" width="66" height="14" fill="#dce0ed" id="svg_73"/>
        <rect opacity="0.5" x="458.60004" y="339.40501" width="66" height="14" fill="#dce0ed" id="svg_74"/>
        <rect opacity="0.5" x="609.06041" y="340.40501" width="66" height="14" fill="#dce0ed" id="svg_75"/>
        <circle cx="700.43001" cy="62.30501" r="4.88" fill="#fff" id="svg_16"/>
        <circle cx="715.06001" cy="62.30501" r="4.88" fill="#fff" id="svg_17"/>
        <circle cx="729.69001" cy="62.30501" r="4.88" fill="#bf0000" id="svg_18"/>
        <path d="m345.02692,392.11283l0,90.45183a45.96273,45.22592 0 0 0 0,-90.45183z" fill="#6c63ff" id="svg_14"/>
        <path stroke="null" d="m341.68417,395.10102a42.22094,41.5441 0 0 0 -37.74802,22.91691l37.74802,21.98634l0,-44.90324l0,-0.00001z" fill="#d0cde1" id="svg_15"/>
        <path opacity="0.5" d="m300.87197,418.60732a45.97551,45.2385 0 0 0 41.09077,65.50554l0,-41.57221l-41.09077,-23.93333z" fill="#6c63ff" id="svg_16"/>
        <g id="svg_1">
            <path d="m508.16001,395.26079l-1.85,9.26c13.61,5.49 22.31,18.83 22.31,34.38a37.07,37.07 0 1 1 -51.93,-33.95l-4.12,-8.35a46.36,46.36 0 1 0 65.39,42.3c0,-20.07 -11.88,-37.19 -29.8,-43.64z" fill="#6c63ff" opacity="0.5" id="svg_94"/>
            <path d="m492.75001,401.29079a32.38,32.38 0 0 1 12.91,2.68l1.85,-9.25a40.9,40.9 0 0 0 -14.76,-2.73a46.17,46.17 0 0 0 -19,4.09l4.16,8.33a36.69,36.69 0 0 1 14.84,-3.12z" fill="#6c63ff" id="svg_95"/>
        </g>
        <g id="svg_2">
            <path d="m642.96001,401.06513c20.44,0 36.14,16.63 36.14,37.08c0,0.09 0,0.19 0,0.29l9.3,0c0,-0.1 0,-0.2 0,-0.29c0,-25.57 -19.87,-46.38 -45.44,-46.38a46.24,46.24 0 0 0 -34.9,15.89l6.59,6.59a37,37 0 0 1 28.31,-13.18z" fill="#6c63ff" opacity="0.5" id="svg_92"/>
            <path d="m688.39001,439.36513l-9.3,0a37.07,37.07 0 1 1 -65.37,-24.19l-6.56,-6.59a46.36,46.36 0 1 0 81.26,30.78l-0.03,0z" fill="#6c63ff" id="svg_93"/>
        </g>
    </g>
</svg>