<svg width="420" height="420" 
    xmlns="http://www.w3.org/2000/svg">

    <!-- head -->
    <!-- Hair -->
    <g>
        <title>background</title>
        <rect fill="none" id="canvas_background" height="422" width="422" y="-1" x="-1"/>
    </g>
    <g>
        <title>Layer 1</title>
        <path id="svg_1" fill="#a0616a" d="m95.80283,187.8811l9.13717,28.28158s-8.26693,26.54118 -4.351,56.12808s1.74041,30.45709 1.74041,30.45709s-39.12624,-2.25247 -35.21033,9.49527s42.172,4.86307 42.172,4.86307s7.34724,-1.97821 10.828,-22.86307s12.23232,-61.11149 12.23232,-61.11149l-8.2294,-37.97489l-28.31917,-7.27564z"/>
        <path id="svg_2" fill="#d0cde1" d="m98.84854,130.01262s-16.53385,6.09142 -16.53385,22.62527s6.09142,39.15912 10.00733,40.46442s30.022,19.14446 34.80811,6.52652s-28.28159,-69.61621 -28.28159,-69.61621z"/>
        <polygon id="svg_3" fill="#a0616a" points="237.21099853515625,325.8079833984375 272.01898193359375,324.50299072265625 298.55999755859375,320.58697509765625 290.72802734375,346.6929931640625 226.3330078125,348.4329833984375 237.21099853515625,325.8079833984375 "/>
        <path id="svg_4" fill="#2f2e41" d="m287.24742,329.28903s-0.4351,-9.57223 -4.351,-9.13713s-1.30531,-3.48081 2.1755,-4.351s13.48815,-5.22122 13.48815,-5.22122l39.59422,2.61061s25.671,22.62527 15.22855,34.80811s-37.41872,1.3053 -37.41872,1.3053l-29.15179,0.4351s-9.57224,-15.66365 0.43509,-20.44977z"/>
        <polygon id="svg_5" fill="#a0616a" points="302.9110107421875,295.7860107421875 315.52899169921875,354.96002197265625 341.635009765625,349.739013671875 326.84197998046875,275.77197265625 311.177978515625,267.5050048828125 302.9110107421875,295.7860107421875 "/>
        <path id="svg_6" fill="#2f2e41" d="m152.80111,288.38951s-73.097,33.0677 -42.20483,66.5705c0,0 0,15.66365 32.6326,12.61794s95.72229,-8.702 98.768,-6.96162s12.61794,-34.373 4.351,-36.11341s-18.27425,-3.91592 -18.27425,-3.91592s8.702,-1.3053 8.702,-8.702c0,0 24.80078,-1.74041 32.1975,-17.40406s14.35835,-27.41138 14.35835,-27.41138l16.969,43.51013s19.57956,-36.11341 34.373,-20.01466c0,0 -16.53385,-103.98922 -29.15179,-113.56145s-21.32,-12.61794 -33.0677,-3.91591s-22.62527,30.89219 -22.62527,30.89219l-97.02761,84.40965z"/>
        <path id="svg_7" fill="#2f2e41" d="m327.27674,337.12086a98.03729,98.03729 0 0 0 -8.702,7.39672c-3.48081,3.48081 -8.26693,1.7404 -8.702,0s-8.26692,1.3053 -9.13713,13.92324s-6.09142,23.93058 7.83183,27.84649s13.48814,15.22854 13.48814,15.22854a46.93427,46.93427 0 0 0 35.24321,2.17551c19.57956,-6.52652 12.61794,-13.48814 12.61794,-13.48814l-26.10608,-43.075s-6.96165,-13.05307 -16.53391,-10.00736z"/>
        <path id="svg_8" fill="#a0616a" d="m255.04992,121.31059s41.76973,14.35834 46.12074,17.404s23.93058,17.40406 14.35835,24.80078s-17.40401,12.18292 -36.11341,6.52657s-39.59423,-23.06037 -39.59423,-23.06037l15.22855,-25.67098z"/>
        <path id="svg_9" fill="#d0cde1" d="m213.28019,102.16613s16.53385,-3.04571 28.28159,3.48081s21.75507,19.57956 21.75507,19.57956s-10.87754,23.06037 -18.70936,26.54118s-22.19017,-13.92324 -22.19017,-13.92324l-9.13713,-35.67831z"/>
        <path id="svg_10" fill="#a0616a" d="m137.13746,89.54819s0.4351,16.969 -1.30531,18.70936s20.88487,53.08236 45.68564,30.45709s5.65632,-31.76239 5.65632,-31.76239s-9.13713,-16.969 -8.702,-18.70936s-40.46442,0 -40.46442,0l-0.87023,1.3053z"/>
        <path id="svg_11" opacity="0.1" d="m137.13746,89.54819s0.4351,16.969 -1.30531,18.70936s20.88487,53.08236 45.68564,30.45709s5.65632,-31.76239 5.65632,-31.76239s-9.13713,-16.969 -8.702,-18.70936s-40.46442,0 -40.46442,0l-0.87023,1.3053z"/>
        <path id="svg_12" fill="#d0cde1" d="m144.09908,122.18079s16.53385,11.31264 23.49547,8.702s15.66365,-13.92324 16.53385,-14.79345s45.25054,88.32558 45.25054,88.32558s-6.52652,32.6326 -23.93057,42.20483s-17.1865,17.1865 -19.362,23.713s-30.23954,-20.66731 -30.23954,-20.66731l-17.83916,-75.70764l0,-46.12069l6.09141,-5.65632z"/>
        <path id="svg_13" fill="#575a89" d="m136.91991,101.94858s-5.43877,-1.08775 -11.09509,3.69836s-32.1975,22.62527 -30.89219,24.36568s13.053,26.54118 15.66365,36.54851s6.52652,11.31263 6.52652,11.31263s9.13712,6.52652 7.83182,11.31264s-6.96162,70.05132 0.8702,84.40966s6.52652,26.97628 4.351,30.45709s20.88486,-10.00733 20.88486,-10.00733s34.373,-27.84648 36.98361,-36.11341a97.2633,97.2633 0 0 0 3.48082,-17.404s-22.19011,-87.89052 -29.15177,-92.67664s-25.45343,-45.90319 -25.45343,-45.90319z"/>
        <path id="svg_14" fill="#575a89" d="m184.71989,102.29268s10.72115,-6.65307 12.89665,-4.91266s22.62527,1.7404 23.06038,3.48081s1.3053,43.51013 16.09874,54.38766s5.22122,32.63261 5.22122,32.63261l10.87753,17.404s-59.17285,56.99363 -55.25787,37.41871c0.21755,-1.08775 0,-1.3053 0,-1.3053s-23.06037,-98.768 -20.01466,-103.98922s8.5797,-28.89863 7.11801,-35.11661z"/>
        <path id="svg_15" fill="#a0616a" d="m275.93479,142.19545l-59.17379,20.44977s-58.73868,13.92324 -49.60155,30.022s47.86115,-11.31264 47.86115,-11.31264l78.79959,-8.82909s31.28105,-26.41412 -17.8854,-30.33004z"/>
        <circle id="svg_16" fill="#a0616a" r="32.1975" cy="73.44944" cx="160.63293"/>
        <path id="svg_17" fill="#2f2e41" d="m134.992,41.45069l-5.95587,-2.16577s12.45312,-12.45313 29.77935,-11.3702l-4.8731,-4.873s11.91173,-4.33147 22.74054,7.03872c5.69249,5.97707 12.27878,13.00279 16.38466,20.9172l6.37831,0l-2.66207,5.32414l9.31726,5.32415l-9.56326,-0.95636a26.866,26.866 0 0 1 -0.90452,13.789l-2.1657,5.95579s-8.66311,-17.32606 -8.66311,-19.49184l0,5.41441s-5.95587,-4.87294 -5.95587,-8.12157l-3.24862,3.79002l-1.62431,-5.95587l-20.0333,5.95587l3.24862,-4.87294l-12.45312,1.62431l4.8731,-5.95586s-14.07743,7.03871 -14.619,12.99458c-0.54138,5.95579 -7.58,13.536 -7.58,13.536l-3.24862,-5.4144s-4.87316,-24.36478 10.82863,-32.48638z"/>
    </g>
</svg>